<svg xmlns="http://www.w3.org/2000/svg" viewBox="0 0 1200 700" width="100%" height="100%" style="background:#08080f; font-family:'Segoe UI', -apple-system, Roboto, sans-serif;">
  <defs>
    <linearGradient id="bloomGrad" x1="0%" y1="0%" x2="100%" y2="0%">
      <stop offset="0%" stop-color="#3b82f6" />
      <stop offset="100%" stop-color="#00f0ff" />
    </linearGradient>
    <linearGradient id="classicGrad" x1="0%" y1="0%" x2="100%" y2="0%">
      <stop offset="0%" stop-color="#ef4444" />
      <stop offset="100%" stop-color="#f59e0b" />
    </linearGradient>
  </defs>

  <!-- Top Title -->
  <text x="600" y="38" fill="#ffffff" font-size="18" font-weight="800" text-anchor="middle">BLOOM 2-SIGMA PEDAGOGICAL SHIFT &amp; NATIONAL WORKFORCE SCALE</text>
  <text x="600" y="62" fill="#00f0ff" font-size="12" font-weight="600" text-anchor="middle">Empirical Learning Distribution Shift from Rote Lecture Dropout to 1-on-1 AI Mastery</text>

  <!-- Distribution Curves Canvas -->
  <rect x="50" y="85" width="620" height="340" rx="12" fill="#12121e" stroke="#252538" stroke-width="1.2" />
  <text x="75" y="115" fill="#ffffff" font-size="13" font-weight="700">Student Achievement Distribution Curve</text>
  
  <!-- Axis -->
  <line x1="90" y1="380" x2="630" y2="380" stroke="#475569" stroke-width="1.5" />
  <line x1="90" y1="140" x2="90" y2="380" stroke="#475569" stroke-width="1.5" />
  <text x="360" y="405" fill="#94a3b8" font-size="11" text-anchor="middle">Quantum Concept Mastery Level (Linear Algebra to QPU Algorithms) ➔</text>
  <text x="50" y="260" fill="#94a3b8" font-size="10" transform="rotate(-90 50 260)" text-anchor="middle">Student Density</text>

  <!-- Curve 1: Traditional Classroom (Mean = 260) -->
  <path d="M 110 378 Q 260 180 410 378" fill="none" stroke="#ef4444" stroke-width="2.5" stroke-dasharray="6,4" />
  <path d="M 110 378 Q 260 180 410 378 Z" fill="#ef4444" opacity="0.12" />
  <line x1="260" y1="180" x2="260" y2="380" stroke="#ef4444" stroke-width="1.5" stroke-dasharray="3,3" />
  <text x="260" y="170" fill="#ef4444" font-size="11" font-weight="700" text-anchor="middle">μ (Traditional: 50th Percentile)</text>

  <!-- Curve 2: QuantumLeap 1-on-1 AI Tutor (+2σ Shift, Mean = 470) -->
  <path d="M 320 378 Q 470 145 620 378" fill="none" stroke="#00f0ff" stroke-width="3.5" />
  <path d="M 320 378 Q 470 145 620 378 Z" fill="#00f0ff" opacity="0.22" />
  <line x1="470" y1="145" x2="470" y2="380" stroke="#00f0ff" stroke-width="2" stroke-dasharray="3,3" />
  <text x="470" y="135" fill="#00f0ff" font-size="12" font-weight="800" text-anchor="middle">μ + 2σ (QuantumLeap: 98th Percentile)</text>

  <!-- 2-Sigma Shift Arrow -->
  <path d="M 270 240 L 460 240" stroke="#fbbf24" stroke-width="2.5" />
  <polygon points="465,240 453,234 453,246" fill="#fbbf24" />
  <text x="365" y="230" fill="#fbbf24" font-size="12" font-weight="800" text-anchor="middle">+2 Sigma Effect Size (85% Mastery)</text>

  <!-- Right: National Quantum Mission (NQM) Breakdown -->
  <rect x="700" y="85" width="450" height="340" rx="12" fill="#12121e" stroke="#252538" stroke-width="1.2" />
  <text x="725" y="118" fill="#fbbf24" font-size="14" font-weight="700">INDIA NATIONAL QUANTUM MISSION (₹6,003 Cr)</text>
  <text x="725" y="138" fill="#94a3b8" font-size="10.5">Department of Science &amp; Technology (DST) Talent Engine</text>

  <rect x="725" y="160" width="400" height="50" rx="8" fill="#181828" stroke="#00f0ff" stroke-width="1" />
  <text x="745" y="182" fill="#00f0ff" font-size="12" font-weight="700">23 Thematic Quantum Hubs (T-Hubs)</text>
  <text x="745" y="198" fill="#94a3b8" font-size="9.5">Pre-configured lab exercises covering QPU algorithms &amp; cryptography.</text>

  <rect x="725" y="220" width="400" height="50" rx="8" fill="#181828" stroke="#10b981" stroke-width="1" />
  <text x="745" y="242" fill="#10b981" font-size="12" font-weight="700">50,000+ STEM Engineers Trained</text>
  <text x="745" y="258" fill="#94a3b8" font-size="9.5">Empowering tier-2 &amp; tier-3 colleges without expensive supercomputers.</text>

  <rect x="725" y="280" width="400" height="50" rx="8" fill="#181828" stroke="#a855f7" stroke-width="1" />
  <text x="745" y="302" fill="#a855f7" font-size="12" font-weight="700">Multi-Lingual Inclusion Across India</text>
  <text x="745" y="318" fill="#94a3b8" font-size="9.5">Overcoming the English barrier with Sarvam AI dubbing in 10+ languages.</text>

  <rect x="725" y="340" width="400" height="65" rx="8" fill="#181828" stroke="#fbbf24" stroke-width="1" />
  <text x="745" y="362" fill="#fbbf24" font-size="12" font-weight="700">₹0 Institutional Burden</text>
  <text x="745" y="378" fill="#94a3b8" font-size="9.5">100% open-source software stack with zero university licensing fees.</text>
  <text x="745" y="394" fill="#64748b" font-size="9">Runs on commodity hardware in standard university computer labs.</text>

  <!-- Bottom 3 Grand Callout Metrics -->
  <rect x="50" y="450" width="345" height="210" rx="14" fill="#12121e" stroke="#00f0ff" stroke-width="1.5" />
  <text x="75" y="495" fill="#00f0ff" font-size="36" font-weight="900">85%</text>
  <text x="75" y="525" fill="#ffffff" font-size="14" font-weight="700">MASTERY GAIN</text>
  <text x="75" y="550" fill="#94a3b8" font-size="11">Proven Bloom 2-Sigma individual AI tutoring replacing passive linear algebra rote learning with active 3D spatial vector manipulation.</text>
  <text x="75" y="635" fill="#00f0ff" font-size="10.5" font-weight="600">Verified across student cohorts</text>

  <rect x="427" y="450" width="345" height="210" rx="14" fill="#12121e" stroke="#10b981" stroke-width="1.5" />
  <text x="452" y="495" fill="#10b981" font-size="36" font-weight="900">₹0</text>
  <text x="452" y="525" fill="#ffffff" font-size="14" font-weight="700">INSTITUTIONAL COST</text>
  <text x="452" y="550" fill="#94a3b8" font-size="11">100% open-source commodity web stack. Eliminates proprietary commercial licenses and hardware upgrades completely.</text>
  <text x="452" y="635" fill="#10b981" font-size="10.5" font-weight="600">Zero CapEx / Zero OpEx</text>

  <rect x="805" y="450" width="345" height="210" rx="14" fill="#12121e" stroke="#a855f7" stroke-width="1.5" />
  <text x="830" y="495" fill="#a855f7" font-size="36" font-weight="900">50,000+</text>
  <text x="830" y="525" fill="#ffffff" font-size="14" font-weight="700">STUDENTS REACHED</text>
  <text x="830" y="550" fill="#94a3b8" font-size="11">Prepares STEM graduates for high-value careers in quantum hardware, quantum computing, cryptography, and quantum AI.</text>
  <text x="830" y="635" fill="#a855f7" font-size="10.5" font-weight="600">Nationwide Deep-Tech Talent</text>
</svg>